<mxfile host="app.diagrams.net" agent="Mozilla/5.0 (Windows NT 10.0; Win64; x64) AppleWebKit/537.36 (KHTML, like Gecko) Chrome/129.0.0.0 Safari/537.36" version="24.7.17">
  <diagram name="Страница — 1" id="XjhA-yRBBNFvGb_kiKkf">
    <mxGraphModel dx="1434" dy="780" grid="1" gridSize="10" guides="1" tooltips="1" connect="1" arrows="1" fold="1" page="1" pageScale="1" pageWidth="827" pageHeight="1169" math="0" shadow="0">
      <root>
        <mxCell id="0" />
        <mxCell id="1" parent="0" />
        <mxCell id="gNH7GMy1-rXDLnaS9H_Y-8" value="" style="edgeStyle=orthogonalEdgeStyle;rounded=0;orthogonalLoop=1;jettySize=auto;html=1;" edge="1" parent="1" source="gNH7GMy1-rXDLnaS9H_Y-4" target="gNH7GMy1-rXDLnaS9H_Y-6">
          <mxGeometry relative="1" as="geometry" />
        </mxCell>
        <mxCell id="gNH7GMy1-rXDLnaS9H_Y-4" value="Начало" style="strokeWidth=2;html=1;shape=mxgraph.flowchart.terminator;whiteSpace=wrap;" vertex="1" parent="1">
          <mxGeometry x="330" y="120" width="160" height="60" as="geometry" />
        </mxCell>
        <mxCell id="gNH7GMy1-rXDLnaS9H_Y-5" value="Конец" style="strokeWidth=2;html=1;shape=mxgraph.flowchart.terminator;whiteSpace=wrap;" vertex="1" parent="1">
          <mxGeometry x="330" y="360" width="160" height="60" as="geometry" />
        </mxCell>
        <mxCell id="gNH7GMy1-rXDLnaS9H_Y-9" value="" style="edgeStyle=orthogonalEdgeStyle;rounded=0;orthogonalLoop=1;jettySize=auto;html=1;" edge="1" parent="1" source="gNH7GMy1-rXDLnaS9H_Y-6" target="gNH7GMy1-rXDLnaS9H_Y-5">
          <mxGeometry relative="1" as="geometry" />
        </mxCell>
        <mxCell id="gNH7GMy1-rXDLnaS9H_Y-6" value="Середина" style="rounded=1;whiteSpace=wrap;html=1;absoluteArcSize=1;arcSize=14;strokeWidth=2;" vertex="1" parent="1">
          <mxGeometry x="330" y="220" width="160" height="100" as="geometry" />
        </mxCell>
      </root>
    </mxGraphModel>
  </diagram>
</mxfile>
